<svg xmlns="http://www.w3.org/2000/svg" xmlns:v="https://svgstorm.com"
viewBox = "0 0 901 633"
width="901"
height="633">
<g fill="None" fill-opacity="0.0" stroke="#000000" stroke-opacity="1.00" stroke-width="0.3"><path d="
M 0.00 633.00 
L 901.00 633.00
L 901.00 0.00
L 0.00 0.00
L 0.00 633.00
M 800.00 87.00 
C 804.29 90.66 808.38 94.76 812.00 99.00
C 850.02 143.50 875.00 197.59 875.00 257.00
C 875.49 262.04 875.48 268.03 875.00 273.00
C 875.00 294.04 870.97 318.84 864.68 337.68 C 858.39 356.52 851.06 372.84 841.23 389.23 C 831.40 405.62 822.35 419.20 808.75 432.75 C 795.15 446.30 784.85 457.55 768.75 467.75 C 752.66 477.95 738.55 487.49 719.77 494.77 C 700.99 502.05 682.57 507.69 660.98 510.98 C 639.39 514.26 610.56 512.81 587.00 513.00 C 563.44 513.19 535.95 512.97 512.00 513.00 C 488.05 513.03 460.64 513.11 437.00 513.00 C 413.36 512.89 383.34 513.31 361.00 513.00 C 338.66 512.69 312.94 510.81 297.77 524.77 C 282.60 538.73 268.82 545.96 255.25 558.25 C 241.68 570.54 224.37 579.13 213.25 591.25 C 202.14 603.37 171.43 622.39 170.00 596.00
C 168.57 587.21 168.40 575.45 169.00 566.00 C 169.60 556.55 167.43 543.94 169.00 535.00 C 170.57 526.06 164.95 511.83 170.00 505.00
C 170.00 504.50 170.00 504.00 170.00 504.00
C 170.00 500.92 170.66 497.00 170.00 494.00
C 165.10 480.73 142.79 480.02 132.77 470.23 C 122.75 460.44 107.95 454.24 97.92 443.08 C 87.89 431.92 77.86 423.29 69.23 410.77 C 60.60 398.25 52.11 386.84 45.69 372.31 C 39.28 357.77 33.06 344.27 29.02 327.98 C 24.99 311.68 20.94 291.96 21.00 274.00 C 21.06 256.04 22.07 234.04 25.33 217.33 C 28.59 200.62 33.52 184.74 39.92 169.92 C 46.33 155.11 52.51 142.93 60.92 129.92 C 69.33 116.91 78.01 106.76 88.25 95.25 C 98.49 83.74 108.87 76.40 120.75 66.75 C 132.62 57.09 144.34 49.63 158.69 42.69 C 173.05 35.76 187.33 30.17 203.67 25.67 C 220.02 21.18 236.25 16.41 255.00 16.00 C 273.75 15.60 297.32 16.20 317.00 16.00 C 336.68 15.80 357.90 16.11 378.00 16.00 C 398.10 15.89 419.77 16.10 440.00 16.00 C 460.23 15.90 480.81 16.16 501.00 16.00 C 521.19 15.84 543.05 16.33 563.00 16.00 C 582.95 15.67 604.69 16.72 624.00 16.00 C 643.31 15.28 663.07 17.98 680.07 21.93 C 697.08 25.88 710.74 30.76 725.70 37.31 C 740.65 43.85 752.71 50.54 765.75 59.25 C 778.78 67.97 788.11 76.84 800.00 87.00 Z"/>
</g>
<g fill="None" fill-opacity="0.0" stroke="#F8F8F8" stroke-opacity="1.00" stroke-width="0.3"><path d="
M 170.00 494.00 
C 171.01 496.74 171.97 501.34 170.00 504.00
C 170.00 504.00 170.00 504.50 170.00 505.00
C 170.00 535.18 168.36 565.87 170.00 596.00
C 171.43 622.39 202.14 603.37 213.25 591.25 C 224.37 579.13 241.68 570.54 255.25 558.25 C 268.82 545.96 282.60 538.73 297.77 524.77 C 312.94 510.81 338.66 512.69 361.00 513.00 C 383.34 513.31 413.36 512.89 437.00 513.00 C 460.64 513.11 488.05 513.03 512.00 513.00 C 535.95 512.97 563.44 513.19 587.00 513.00 C 610.56 512.81 639.39 514.26 660.98 510.98 C 682.57 507.69 700.99 502.05 719.77 494.77 C 738.55 487.49 752.66 477.95 768.75 467.75 C 784.85 457.55 795.15 446.30 808.75 432.75 C 822.35 419.20 831.40 405.62 841.23 389.23 C 851.06 372.84 858.39 356.52 864.68 337.68 C 870.97 318.84 875.00 294.04 875.00 273.00
C 875.00 267.67 875.00 262.33 875.00 257.00
C 875.00 197.59 850.02 143.50 812.00 99.00
C 808.08 95.08 803.87 90.87 800.00 87.00
C 788.11 76.84 778.78 67.97 765.75 59.25 C 752.71 50.54 740.65 43.85 725.70 37.31 C 710.74 30.76 697.08 25.88 680.07 21.93 C 663.07 17.98 643.31 15.28 624.00 16.00 C 604.69 16.72 582.95 15.67 563.00 16.00 C 543.05 16.33 521.19 15.84 501.00 16.00 C 480.81 16.16 460.23 15.90 440.00 16.00 C 419.77 16.10 398.10 15.89 378.00 16.00 C 357.90 16.11 336.68 15.80 317.00 16.00 C 297.32 16.20 273.75 15.60 255.00 16.00 C 236.25 16.41 220.02 21.18 203.67 25.67 C 187.33 30.17 173.05 35.76 158.69 42.69 C 144.34 49.63 132.62 57.09 120.75 66.75 C 108.87 76.40 98.49 83.74 88.25 95.25 C 78.01 106.76 69.33 116.91 60.92 129.92 C 52.51 142.93 46.33 155.11 39.92 169.92 C 33.52 184.74 28.59 200.62 25.33 217.33 C 22.07 234.04 21.06 256.04 21.00 274.00 C 20.94 291.96 24.99 311.68 29.02 327.98 C 33.06 344.27 39.28 357.77 45.69 372.31 C 52.11 386.84 60.60 398.25 69.23 410.77 C 77.86 423.29 87.89 431.92 97.92 443.08 C 107.95 454.24 122.75 460.44 132.77 470.23 C 142.79 480.02 165.10 480.73 170.00 494.00
M 624.00 40.00 
C 634.03 40.00 644.89 40.22 654.22 41.78 C 663.55 43.33 673.36 44.38 682.01 46.99 C 690.65 49.61 698.55 52.42 706.68 55.32 C 714.81 58.22 722.04 61.58 729.25 65.75 C 736.45 69.93 743.42 73.34 750.08 77.92 C 756.74 82.50 762.56 87.25 768.75 92.25 C 774.94 97.24 780.61 101.95 786.25 107.75 C 791.88 113.55 796.48 119.17 801.75 125.25 C 807.03 131.32 811.27 137.47 815.75 144.25 C 820.24 151.02 823.88 157.79 827.77 165.23 C 831.66 172.67 834.52 180.04 837.92 188.08 C 841.33 196.11 843.14 205.04 845.00 214.00 C 846.85 222.96 849.27 232.06 850.33 241.67 C 851.39 251.28 850.77 264.01 851.00 274.00 C 851.23 283.99 849.57 294.76 848.01 304.01 C 846.45 313.26 843.73 321.69 841.22 330.22 C 838.71 338.75 835.47 346.39 832.23 354.23 C 828.99 362.07 825.67 369.29 821.23 376.23 C 816.79 383.17 813.16 389.83 808.23 396.23 C 803.30 402.63 798.74 408.30 793.25 414.25 C 787.75 420.19 782.19 425.03 776.25 430.25 C 770.32 435.48 765.28 440.19 758.77 444.77 C 752.26 449.35 746.04 453.93 738.77 457.77 C 731.50 461.61 724.77 465.59 716.98 468.98 C 709.18 472.36 701.78 475.52 693.32 478.32 C 684.86 481.13 676.27 483.18 666.99 484.99 C 657.71 486.81 648.32 489.11 638.00 489.00 C 627.68 488.89 615.69 489.05 605.00 489.00 C 594.31 488.95 582.86 489.02 572.00 489.00 C 561.14 488.98 549.93 489.01 539.00 489.00 C 528.07 488.99 516.96 489.01 506.00 489.00 C 495.04 488.99 483.96 489.01 473.00 489.00 C 462.04 488.99 450.94 489.02 440.00 489.00 C 429.06 488.98 417.88 489.04 407.00 489.00 C 396.12 488.96 384.74 489.09 374.00 489.00 C 363.26 488.91 351.43 489.19 341.00 489.00 C 330.57 488.81 318.37 489.02 308.93 489.93 C 299.49 490.83 295.08 497.36 288.25 502.25 C 281.43 507.14 276.04 511.80 269.75 516.75 C 263.46 521.70 257.23 526.39 251.25 531.25 C 245.27 536.11 238.00 540.82 232.25 545.25 C 226.51 549.69 220.04 557.81 213.75 559.75 C 207.47 561.70 201.71 576.48 195.00 574.00
C 189.65 572.02 194.11 558.91 193.00 553.00 C 191.89 547.09 193.64 536.01 193.00 529.00 C 192.36 521.99 193.59 512.45 193.00 505.00 C 192.41 497.55 193.93 488.53 193.00 481.00
C 186.68 462.03 157.57 461.59 143.92 448.08 C 130.26 434.57 111.20 427.50 99.75 410.25 C 88.30 393.00 76.37 379.82 67.69 360.31 C 59.02 340.79 50.52 321.02 47.07 298.93 C 43.62 276.84 44.40 244.49 48.98 222.98 C 53.55 201.46 59.82 180.53 69.77 161.77 C 79.73 143.01 89.39 129.30 103.75 113.75 C 118.11 98.21 130.74 87.83 148.25 76.25 C 165.75 64.66 183.27 57.22 204.07 50.07 C 224.88 42.93 253.56 40.00 277.00 40.00
C 332.92 34.59 392.53 38.99 450.00 39.00 C 507.47 39.01 568.04 34.58 624.00 40.00 Z"/>
</g>
<g fill="None" fill-opacity="0.0" stroke="#878787" stroke-opacity="0.95" stroke-width="0.3"><path d="
M 277.00 40.00 
C 392.67 40.00 508.33 40.00 624.00 40.00
C 568.04 34.58 507.47 39.01 450.00 39.00 C 392.53 38.99 332.92 34.59 277.00 40.00 Z"/>
</g>
<g fill="None" fill-opacity="0.0" stroke="#000000" stroke-opacity="1.00" stroke-width="0.3"><path d="
M 193.00 481.00 
C 197.85 495.54 194.00 515.02 194.00 531.00
C 194.30 534.14 194.30 537.92 194.00 541.00
C 194.00 552.01 193.40 563.37 195.00 574.00
C 201.71 576.48 207.47 561.70 213.75 559.75 C 220.04 557.81 226.51 549.69 232.25 545.25 C 238.00 540.82 245.27 536.11 251.25 531.25 C 257.23 526.39 263.46 521.70 269.75 516.75 C 276.04 511.80 281.43 507.14 288.25 502.25 C 295.08 497.36 299.49 490.83 308.93 489.93 C 318.37 489.02 330.57 488.81 341.00 489.00 C 351.43 489.19 363.26 488.91 374.00 489.00 C 384.74 489.09 396.12 488.96 407.00 489.00 C 417.88 489.04 429.06 488.98 440.00 489.00 C 450.94 489.02 462.04 488.99 473.00 489.00 C 483.96 489.01 495.04 488.99 506.00 489.00 C 516.96 489.01 528.07 488.99 539.00 489.00 C 549.93 489.01 561.14 488.98 572.00 489.00 C 582.86 489.02 594.31 488.95 605.00 489.00 C 615.69 489.05 627.68 488.89 638.00 489.00 C 648.32 489.11 657.71 486.81 666.99 484.99 C 676.27 483.18 684.86 481.13 693.32 478.32 C 701.78 475.52 709.18 472.36 716.98 468.98 C 724.77 465.59 731.50 461.61 738.77 457.77 C 746.04 453.93 752.26 449.35 758.77 444.77 C 765.28 440.19 770.32 435.48 776.25 430.25 C 782.19 425.03 787.75 420.19 793.25 414.25 C 798.74 408.30 803.30 402.63 808.23 396.23 C 813.16 389.83 816.79 383.17 821.23 376.23 C 825.67 369.29 828.99 362.07 832.23 354.23 C 835.47 346.39 838.71 338.75 841.22 330.22 C 843.73 321.69 846.45 313.26 848.01 304.01 C 849.57 294.76 851.23 283.99 851.00 274.00 C 850.77 264.01 851.39 251.28 850.33 241.67 C 849.27 232.06 846.85 222.96 845.00 214.00 C 843.14 205.04 841.33 196.11 837.92 188.08 C 834.52 180.04 831.66 172.67 827.77 165.23 C 823.88 157.79 820.24 151.02 815.75 144.25 C 811.27 137.47 807.03 131.32 801.75 125.25 C 796.48 119.17 791.88 113.55 786.25 107.75 C 780.61 101.95 774.94 97.24 768.75 92.25 C 762.56 87.25 756.74 82.50 750.08 77.92 C 743.42 73.34 736.45 69.93 729.25 65.75 C 722.04 61.58 714.81 58.22 706.68 55.32 C 698.55 52.42 690.65 49.61 682.01 46.99 C 673.36 44.38 663.55 43.33 654.22 41.78 C 644.89 40.22 634.03 40.00 624.00 40.00
C 508.33 40.00 392.67 40.00 277.00 40.00
C 253.56 40.00 224.88 42.93 204.07 50.07 C 183.27 57.22 165.75 64.66 148.25 76.25 C 130.74 87.83 118.11 98.21 103.75 113.75 C 89.39 129.30 79.73 143.01 69.77 161.77 C 59.82 180.53 53.55 201.46 48.98 222.98 C 44.40 244.49 43.62 276.84 47.07 298.93 C 50.52 321.02 59.02 340.79 67.69 360.31 C 76.37 379.82 88.30 393.00 99.75 410.25 C 111.20 427.50 130.26 434.57 143.92 448.08 C 157.57 461.59 186.68 462.03 193.00 481.00
M 290.00 232.00 
C 292.46 232.00 295.60 231.47 298.00 232.00
C 298.95 232.21 300.04 231.83 301.00 232.00
C 289.76 242.79 285.25 250.06 272.75 260.75 C 260.25 271.45 273.83 284.64 281.30 295.70 C 288.78 306.75 298.17 318.78 304.00 331.00
C 291.35 329.90 270.34 335.97 261.70 325.30 C 253.05 314.63 248.50 305.39 242.00 294.00
C 225.27 297.57 225.51 316.94 225.00 330.00
C 221.52 334.67 213.84 330.86 209.00 331.00 C 204.15 331.15 197.00 333.88 193.00 330.00
C 187.73 324.88 192.46 311.85 191.02 303.98 C 189.59 296.11 193.24 284.29 192.00 275.00 C 190.76 265.71 192.59 253.76 192.00 244.00 C 191.41 234.24 192.30 223.99 192.00 214.00 C 191.70 204.01 192.23 193.07 192.00 183.00
C 203.33 183.00 214.67 183.00 226.00 183.00
C 226.00 211.33 226.00 239.67 226.00 268.00
C 236.19 259.08 243.16 254.10 251.30 242.30 C 259.45 230.50 276.19 228.64 290.00 232.00
M 418.00 207.00 
C 423.85 242.32 432.53 277.17 436.00 313.00
C 436.37 313.84 437.92 314.77 438.00 316.00
C 439.25 315.70 439.71 314.17 441.00 314.00
C 442.14 306.86 443.33 297.53 445.98 290.98 C 448.62 284.43 446.93 274.64 454.23 271.23 C 461.53 267.82 474.88 274.24 482.00 271.00 C 489.12 267.76 503.27 276.73 494.00 282.00
C 493.73 282.15 493.23 282.74 493.00 283.00
C 487.90 288.76 477.36 283.55 470.00 284.00 C 462.64 284.45 460.02 291.79 458.00 298.00
C 454.81 307.83 453.03 314.92 450.22 325.22 C 447.41 335.53 447.84 343.22 444.22 354.22 C 440.60 365.22 429.15 357.08 429.07 346.93 C 429.00 336.77 425.74 326.79 424.07 316.93 C 422.41 307.06 421.08 296.49 418.00 287.00
C 413.98 274.62 410.37 260.38 412.00 247.00
C 412.15 245.78 412.12 244.22 412.00 243.00
C 410.89 240.57 407.55 243.96 407.00 245.00
C 405.79 252.04 404.04 258.85 403.00 266.00
C 402.03 272.65 402.37 282.18 394.32 284.32 C 386.27 286.46 377.44 282.57 369.00 284.00 C 360.56 285.43 350.20 281.85 342.00 284.00 C 333.80 286.15 327.36 273.97 336.00 271.00
C 336.38 270.79 337.50 271.00 338.00 271.00
C 347.21 266.59 368.22 268.85 378.00 271.00
C 379.00 271.00 380.00 271.00 381.00 271.00
C 381.63 271.00 386.82 270.63 387.00 271.00
C 393.89 266.77 390.40 257.02 393.33 250.33 C 396.25 243.64 397.63 235.40 398.98 227.98 C 400.33 220.55 404.50 213.01 404.00 205.00
C 403.97 204.50 403.87 203.46 404.00 203.00
C 405.02 199.31 406.50 195.00 411.00 195.00
C 411.50 195.00 412.55 194.85 413.00 195.00
C 419.13 197.11 418.15 203.00 418.00 207.00
M 735.00 239.00 
C 733.43 244.59 729.67 249.40 728.00 255.00
C 717.09 249.99 709.23 246.71 696.78 247.78 C 684.33 248.85 683.85 264.45 695.23 267.77 C 706.61 271.09 714.77 271.96 724.70 278.30 C 734.62 284.64 738.24 294.32 736.22 305.22 C 734.20 316.12 728.60 323.20 718.77 327.77 C 708.94 332.35 692.70 331.07 682.98 330.02 C 673.25 328.98 657.50 325.61 662.32 313.32 C 667.15 301.03 680.15 312.45 689.00 314.00 C 697.85 315.54 718.85 312.94 715.00 300.00 C 711.15 287.06 697.03 292.15 688.32 286.68 C 679.62 281.21 669.06 280.28 665.68 269.32 C 662.29 258.36 663.97 247.02 672.75 239.75 C 681.54 232.48 691.75 229.54 703.00 230.00 C 714.25 230.46 725.45 233.26 735.00 239.00
M 531.00 233.00 
C 545.83 234.18 542.74 252.27 547.33 263.67 C 551.92 275.07 552.75 288.67 558.00 300.00
C 566.69 279.56 571.25 257.01 579.00 236.00
C 581.79 230.02 588.31 231.47 593.00 234.00
C 601.01 238.32 600.59 251.47 604.78 260.22 C 608.96 268.98 611.19 280.62 614.00 290.00
C 614.93 291.63 618.73 292.30 618.00 295.00
C 622.05 292.89 618.41 285.95 623.00 284.00
C 624.94 274.78 627.71 264.60 630.78 255.78 C 633.85 246.96 631.83 232.95 644.00 233.00
C 647.49 232.43 650.50 232.13 654.00 233.00
C 655.76 233.15 655.76 233.16 657.00 234.00
C 660.84 236.61 653.04 249.08 652.02 255.02 C 651.01 260.97 646.02 270.37 644.68 277.68 C 643.34 284.99 639.10 292.05 637.22 300.22 C 635.35 308.40 632.42 313.76 630.07 323.07 C 627.73 332.39 617.17 327.23 610.00 328.00
C 602.71 307.42 595.20 286.91 589.00 266.00
C 582.99 272.86 581.05 282.42 578.02 292.02 C 575.00 301.63 570.80 310.23 568.68 320.68 C 566.56 331.13 546.88 331.55 545.01 320.99 C 543.14 310.43 538.28 303.05 536.02 292.98 C 533.77 282.90 529.27 274.23 526.68 264.32 C 524.09 254.41 520.28 245.03 518.00 235.00
C 519.20 229.90 526.89 232.67 531.00 233.00 Z"/>
</g>
<g fill="None" fill-opacity="0.0" stroke="#737373" stroke-opacity="0.89" stroke-width="0.3"><path d="
M 812.00 99.00 
C 808.38 94.76 804.29 90.66 800.00 87.00
C 803.87 90.87 808.08 95.08 812.00 99.00 Z"/>
</g>
<g fill="None" fill-opacity="0.0" stroke="#FAFAFA" stroke-opacity="1.00" stroke-width="0.3"><path d="
M 193.00 330.00 
C 196.17 331.57 205.46 330.13 209.00 330.00 C 212.54 329.87 222.28 331.91 225.00 330.00
C 225.51 316.94 225.27 297.57 242.00 294.00
C 248.50 305.39 253.05 314.63 261.70 325.30 C 270.34 335.97 291.35 329.90 304.00 331.00
C 298.17 318.78 288.78 306.75 281.30 295.70 C 273.83 284.64 260.25 271.45 272.75 260.75 C 285.25 250.06 289.76 242.79 301.00 232.00
C 300.04 231.83 298.95 232.21 298.00 232.00
C 296.53 231.85 291.71 232.17 290.00 232.00
C 276.19 228.64 259.45 230.50 251.30 242.30 C 243.16 254.10 236.19 259.08 226.00 268.00
C 226.00 239.67 226.00 211.33 226.00 183.00
C 214.67 183.00 203.33 183.00 192.00 183.00
C 192.23 193.07 191.70 204.01 192.00 214.00 C 192.30 223.99 191.41 234.24 192.00 244.00 C 192.59 253.76 190.76 265.71 192.00 275.00 C 193.24 284.29 189.59 296.11 191.02 303.98 C 192.46 311.85 187.73 324.88 193.00 330.00 Z"/>
</g>
<g fill="None" fill-opacity="0.0" stroke="#370904" stroke-opacity="0.95" stroke-width="0.3"><path d="
M 404.00 203.00 
C 405.30 200.87 408.90 196.62 411.00 195.00
C 406.50 195.00 405.02 199.31 404.00 203.00 Z"/>
</g>
<g fill="None" fill-opacity="0.0" stroke="#A2442A" stroke-opacity="0.93" stroke-width="0.3"><path d="
M 404.00 203.00 
C 403.87 203.46 403.97 204.50 404.00 205.00
C 407.64 204.95 410.12 190.93 416.00 199.00
C 415.60 198.11 413.72 195.43 413.00 195.00
C 412.55 194.85 411.50 195.00 411.00 195.00
C 408.90 196.62 405.30 200.87 404.00 203.00 Z"/>
</g>
<g fill="None" fill-opacity="0.0" stroke="#340803" stroke-opacity="0.94" stroke-width="0.3"><path d="
M 416.00 199.00 
C 416.97 201.16 417.61 204.66 418.00 207.00
C 418.15 203.00 419.13 197.11 413.00 195.00
C 413.72 195.43 415.60 198.11 416.00 199.00 Z"/>
</g>
<g fill="None" fill-opacity="0.0" stroke="#E85522" stroke-opacity="0.99" stroke-width="0.3"><path d="
M 404.00 205.00 
C 404.50 213.01 400.33 220.55 398.98 227.98 C 397.63 235.40 396.25 243.64 393.33 250.33 C 390.40 257.02 393.89 266.77 387.00 271.00
C 386.24 271.47 385.98 271.60 385.00 272.00
C 380.51 273.83 373.78 273.15 368.98 272.02 C 364.17 270.90 356.50 274.65 352.00 273.00 C 347.50 271.35 337.65 275.23 335.00 273.00
C 329.40 279.12 338.95 284.97 345.67 282.67 C 352.39 280.37 361.67 284.04 369.00 283.00 C 376.33 281.96 386.47 284.25 393.22 282.22 C 399.97 280.19 401.55 271.67 403.00 266.00
C 404.04 258.85 405.79 252.04 407.00 245.00
C 407.58 241.64 408.12 238.31 409.00 235.00
C 412.13 236.36 410.59 240.49 412.00 243.00
C 412.12 244.22 412.15 245.78 412.00 247.00
C 413.76 259.93 415.80 273.74 418.00 287.00
C 421.08 296.49 422.41 307.06 424.07 316.93 C 425.74 326.79 429.00 336.77 429.07 346.93 C 429.15 357.08 440.60 365.22 444.22 354.22 C 447.84 343.22 447.41 335.53 450.22 325.22 C 453.03 314.92 454.81 307.83 458.00 298.00
C 458.65 293.66 457.78 285.69 462.00 283.00
C 465.48 280.78 472.40 281.67 477.00 282.00 C 481.60 282.33 489.51 280.56 494.00 282.00
C 503.27 276.73 489.12 267.76 482.00 271.00 C 474.88 274.24 461.53 267.82 454.23 271.23 C 446.93 274.64 448.62 284.43 445.98 290.98 C 443.33 297.53 442.14 306.86 441.00 314.00
C 440.52 317.02 440.33 320.91 438.00 323.00
C 436.40 319.94 435.68 316.59 436.00 313.00
C 432.53 277.17 423.85 242.32 418.00 207.00
C 417.61 204.66 416.97 201.16 416.00 199.00
C 410.12 190.93 407.64 204.95 404.00 205.00 Z"/>
</g>
<g fill="None" fill-opacity="0.0" stroke="#ED531F" stroke-opacity="0.99" stroke-width="0.3"><path d="
M 735.00 239.00 
C 725.45 233.26 714.25 230.46 703.00 230.00 C 691.75 229.54 681.54 232.48 672.75 239.75 C 663.97 247.02 662.29 258.36 665.68 269.32 C 669.06 280.28 679.62 281.21 688.32 286.68 C 697.03 292.15 711.15 287.06 715.00 300.00 C 718.85 312.94 697.85 315.54 689.00 314.00 C 680.15 312.45 667.15 301.03 662.32 313.32 C 657.50 325.61 673.25 328.98 682.98 330.02 C 692.70 331.07 708.94 332.35 718.77 327.77 C 728.60 323.20 734.20 316.12 736.22 305.22 C 738.24 294.32 734.62 284.64 724.70 278.30 C 714.77 271.96 706.61 271.09 695.23 267.77 C 683.85 264.45 684.33 248.85 696.78 247.78 C 709.23 246.71 717.09 249.99 728.00 255.00
C 729.67 249.40 733.43 244.59 735.00 239.00 Z"/>
</g>
<g fill="None" fill-opacity="0.0" stroke="#808080" stroke-opacity="0.86" stroke-width="0.3"><path d="
M 298.00 232.00 
C 295.60 231.47 292.46 232.00 290.00 232.00
C 291.71 232.17 296.53 231.85 298.00 232.00 Z"/>
</g>
<g fill="None" fill-opacity="0.0" stroke="#611D0E" stroke-opacity="0.97" stroke-width="0.3"><path d="
M 518.00 235.00 
C 522.58 236.35 527.29 233.39 531.00 233.00
C 526.89 232.67 519.20 229.90 518.00 235.00 Z"/>
</g>
<g fill="None" fill-opacity="0.0" stroke="#7A301A" stroke-opacity="0.98" stroke-width="0.3"><path d="
M 579.00 236.00 
C 581.32 233.18 589.12 233.14 593.00 234.00
C 588.31 231.47 581.79 230.02 579.00 236.00 Z"/>
</g>
<g fill="None" fill-opacity="0.0" stroke="#380C07" stroke-opacity="0.84" stroke-width="0.3"><path d="
M 644.00 233.00 
C 645.00 233.00 646.00 233.00 647.00 233.00
C 649.30 233.00 651.71 232.80 654.00 233.00
C 650.50 232.13 647.49 232.43 644.00 233.00 Z"/>
</g>
<g fill="None" fill-opacity="0.0" stroke="#EF561F" stroke-opacity="0.99" stroke-width="0.3"><path d="
M 518.00 235.00 
C 520.28 245.03 524.09 254.41 526.68 264.32 C 529.27 274.23 533.77 282.90 536.02 292.98 C 538.28 303.05 543.14 310.43 545.01 320.99 C 546.88 331.55 566.56 331.13 568.68 320.68 C 570.80 310.23 575.00 301.63 578.02 292.02 C 581.05 282.42 582.99 272.86 589.00 266.00
C 595.20 286.91 602.71 307.42 610.00 328.00
C 617.17 327.23 627.73 332.39 630.07 323.07 C 632.42 313.76 635.35 308.40 637.22 300.22 C 639.10 292.05 643.34 284.99 644.68 277.68 C 646.02 270.37 651.01 260.97 652.02 255.02 C 653.04 249.08 660.84 236.61 657.00 234.00
C 654.77 233.02 649.11 233.46 647.00 233.00
C 646.00 233.00 645.00 233.00 644.00 233.00
C 631.83 232.95 633.85 246.96 630.78 255.78 C 627.71 264.60 624.94 274.78 623.00 284.00
C 621.84 289.49 621.55 297.64 618.00 301.00
C 616.82 297.31 615.37 293.68 614.00 290.00
C 611.19 280.62 608.96 268.98 604.78 260.22 C 600.59 251.47 601.01 238.32 593.00 234.00
C 589.12 233.14 581.32 233.18 579.00 236.00
C 571.25 257.01 566.69 279.56 558.00 300.00
C 552.75 288.67 551.92 275.07 547.33 263.67 C 542.74 252.27 545.83 234.18 531.00 233.00
C 527.29 233.39 522.58 236.35 518.00 235.00 Z"/>
</g>
<g fill="None" fill-opacity="0.0" stroke="#62170C" stroke-opacity="0.99" stroke-width="0.3"><path d="
M 657.00 234.00 
C 655.76 233.16 655.76 233.15 654.00 233.00
C 651.71 232.80 649.30 233.00 647.00 233.00
C 649.11 233.46 654.77 233.02 657.00 234.00 Z"/>
</g>
<g fill="None" fill-opacity="0.0" stroke="#61190B" stroke-opacity="0.93" stroke-width="0.3"><path d="
M 407.00 245.00 
C 407.55 243.96 410.89 240.57 412.00 243.00
C 410.59 240.49 412.13 236.36 409.00 235.00
C 408.12 238.31 407.58 241.64 407.00 245.00 Z"/>
</g>
<g fill="None" fill-opacity="0.0" stroke="#410D04" stroke-opacity="0.91" stroke-width="0.3"><path d="
M 418.00 287.00 
C 415.80 273.74 413.76 259.93 412.00 247.00
C 410.37 260.38 413.98 274.62 418.00 287.00 Z"/>
</g>
<g fill="None" fill-opacity="0.0" stroke="#5C5C5D" stroke-opacity="0.92" stroke-width="0.3"><path d="
M 875.00 273.00 
C 875.48 268.03 875.49 262.04 875.00 257.00
C 875.00 262.33 875.00 267.67 875.00 273.00 Z"/>
</g>
<g fill="None" fill-opacity="0.0" stroke="#380702" stroke-opacity="0.91" stroke-width="0.3"><path d="
M 335.00 273.00 
C 335.26 272.72 335.79 271.12 336.00 271.00
C 327.36 273.97 333.80 286.15 342.00 284.00 C 350.20 281.85 360.56 285.43 369.00 284.00 C 377.44 282.57 386.27 286.46 394.32 284.32 C 402.37 282.18 402.03 272.65 403.00 266.00
C 401.55 271.67 399.97 280.19 393.22 282.22 C 386.47 284.25 376.33 281.96 369.00 283.00 C 361.67 284.04 352.39 280.37 345.67 282.67 C 338.95 284.97 329.40 279.12 335.00 273.00 Z"/>
</g>
<g fill="None" fill-opacity="0.0" stroke="#3A0B02" stroke-opacity="0.94" stroke-width="0.3"><path d="
M 338.00 271.00 
C 351.33 271.00 364.67 271.00 378.00 271.00
C 368.22 268.85 347.21 266.59 338.00 271.00 Z"/>
</g>
<g fill="None" fill-opacity="0.0" stroke="#B95031" stroke-opacity="0.93" stroke-width="0.3"><path d="
M 335.00 273.00 
C 337.65 275.23 347.50 271.35 352.00 273.00 C 356.50 274.65 364.17 270.90 368.98 272.02 C 373.78 273.15 380.51 273.83 385.00 272.00
C 383.15 272.24 382.11 271.20 381.00 271.00
C 380.00 271.00 379.00 271.00 378.00 271.00
C 364.67 271.00 351.33 271.00 338.00 271.00
C 337.50 271.00 336.38 270.79 336.00 271.00
C 335.79 271.12 335.26 272.72 335.00 273.00 Z"/>
</g>
<g fill="None" fill-opacity="0.0" stroke="#7D2E1B" stroke-opacity="0.89" stroke-width="0.3"><path d="
M 385.00 272.00 
C 385.98 271.60 386.24 271.47 387.00 271.00
C 386.82 270.63 381.63 271.00 381.00 271.00
C 382.11 271.20 383.15 272.24 385.00 272.00 Z"/>
</g>
<g fill="None" fill-opacity="0.0" stroke="#AB4627" stroke-opacity="0.93" stroke-width="0.3"><path d="
M 462.00 283.00 
C 470.15 279.48 484.11 284.28 493.00 283.00
C 493.23 282.74 493.73 282.15 494.00 282.00
C 489.51 280.56 481.60 282.33 477.00 282.00 C 472.40 281.67 465.48 280.78 462.00 283.00 Z"/>
</g>
<g fill="None" fill-opacity="0.0" stroke="#370401" stroke-opacity="0.94" stroke-width="0.3"><path d="
M 458.00 298.00 
C 460.02 291.79 462.64 284.45 470.00 284.00 C 477.36 283.55 487.90 288.76 493.00 283.00
C 484.11 284.28 470.15 279.48 462.00 283.00
C 457.78 285.69 458.65 293.66 458.00 298.00 Z"/>
</g>
<g fill="None" fill-opacity="0.0" stroke="#551306" stroke-opacity="0.93" stroke-width="0.3"><path d="
M 614.00 290.00 
C 615.37 293.68 616.82 297.31 618.00 301.00
C 621.55 297.64 621.84 289.49 623.00 284.00
C 618.41 285.95 622.05 292.89 618.00 295.00
C 618.73 292.30 614.93 291.63 614.00 290.00 Z"/>
</g>
<g fill="None" fill-opacity="0.0" stroke="#691C0D" stroke-opacity="0.93" stroke-width="0.3"><path d="
M 441.00 314.00 
C 439.71 314.17 439.25 315.70 438.00 316.00
C 437.92 314.77 436.37 313.84 436.00 313.00
C 435.68 316.59 436.40 319.94 438.00 323.00
C 440.33 320.91 440.52 317.02 441.00 314.00 Z"/>
</g>
<g fill="None" fill-opacity="0.0" stroke="#626262" stroke-opacity="0.95" stroke-width="0.3"><path d="
M 225.00 330.00 
C 222.28 331.91 212.54 329.87 209.00 330.00 C 205.46 330.13 196.17 331.57 193.00 330.00
C 197.00 333.88 204.15 331.15 209.00 331.00 C 213.84 330.86 221.52 334.67 225.00 330.00 Z"/>
</g>
<g fill="None" fill-opacity="0.0" stroke="#828282" stroke-opacity="0.94" stroke-width="0.3"><path d="
M 195.00 574.00 
C 193.40 563.37 194.00 552.01 194.00 541.00
C 194.00 537.67 194.00 534.33 194.00 531.00
C 194.00 515.02 197.85 495.54 193.00 481.00
C 193.93 488.53 192.41 497.55 193.00 505.00 C 193.59 512.45 192.36 521.99 193.00 529.00 C 193.64 536.01 191.89 547.09 193.00 553.00 C 194.11 558.91 189.65 572.02 195.00 574.00 Z"/>
</g>
<g fill="None" fill-opacity="0.0" stroke="#929292" stroke-opacity="0.89" stroke-width="0.3"><path d="
M 170.00 504.00 
C 171.97 501.34 171.01 496.74 170.00 494.00
C 170.66 497.00 170.00 500.92 170.00 504.00 Z"/>
</g>
<g fill="None" fill-opacity="0.0" stroke="#7B7B7B" stroke-opacity="0.94" stroke-width="0.3"><path d="
M 170.00 596.00 
C 168.36 565.87 170.00 535.18 170.00 505.00
C 164.95 511.83 170.57 526.06 169.00 535.00 C 167.43 543.94 169.60 556.55 169.00 566.00 C 168.40 575.45 168.57 587.21 170.00 596.00 Z"/>
</g>
<g fill="None" fill-opacity="0.0" stroke="#454545" stroke-opacity="0.87" stroke-width="0.3"><path d="
M 194.00 541.00 
C 194.30 537.92 194.30 534.14 194.00 531.00
C 194.00 534.33 194.00 537.67 194.00 541.00 Z"/>
</g>
<g fill="None" fill-opacity="0.00" stroke="None">
<path d="
M 0.00 633.00 
L 901.00 633.00
L 901.00 0.00
L 0.00 0.00
L 0.00 633.00
M 800.00 87.00 
C 804.29 90.66 808.38 94.76 812.00 99.00
C 850.02 143.50 875.00 197.59 875.00 257.00
C 875.49 262.04 875.48 268.03 875.00 273.00
C 875.00 294.04 870.97 318.84 864.68 337.68 C 858.39 356.52 851.06 372.84 841.23 389.23 C 831.40 405.62 822.35 419.20 808.75 432.75 C 795.15 446.30 784.85 457.55 768.75 467.75 C 752.66 477.95 738.55 487.49 719.77 494.77 C 700.99 502.05 682.57 507.69 660.98 510.98 C 639.39 514.26 610.56 512.81 587.00 513.00 C 563.44 513.19 535.95 512.97 512.00 513.00 C 488.05 513.03 460.64 513.11 437.00 513.00 C 413.36 512.89 383.34 513.31 361.00 513.00 C 338.66 512.69 312.94 510.81 297.77 524.77 C 282.60 538.73 268.82 545.96 255.25 558.25 C 241.68 570.54 224.37 579.13 213.25 591.25 C 202.14 603.37 171.43 622.39 170.00 596.00
C 168.57 587.21 168.40 575.45 169.00 566.00 C 169.60 556.55 167.43 543.94 169.00 535.00 C 170.57 526.06 164.95 511.83 170.00 505.00
C 170.00 504.50 170.00 504.00 170.00 504.00
C 170.00 500.92 170.66 497.00 170.00 494.00
C 165.10 480.73 142.79 480.02 132.77 470.23 C 122.75 460.44 107.95 454.24 97.92 443.08 C 87.89 431.92 77.86 423.29 69.23 410.77 C 60.60 398.25 52.11 386.84 45.69 372.31 C 39.28 357.77 33.06 344.27 29.02 327.98 C 24.99 311.68 20.94 291.96 21.00 274.00 C 21.06 256.04 22.07 234.04 25.33 217.33 C 28.59 200.62 33.52 184.74 39.92 169.92 C 46.33 155.11 52.51 142.93 60.92 129.92 C 69.33 116.91 78.01 106.76 88.25 95.25 C 98.49 83.74 108.87 76.40 120.75 66.75 C 132.62 57.09 144.34 49.63 158.69 42.69 C 173.05 35.76 187.33 30.17 203.67 25.67 C 220.02 21.18 236.25 16.41 255.00 16.00 C 273.75 15.60 297.32 16.20 317.00 16.00 C 336.68 15.80 357.90 16.11 378.00 16.00 C 398.10 15.89 419.77 16.10 440.00 16.00 C 460.23 15.90 480.81 16.16 501.00 16.00 C 521.19 15.84 543.05 16.33 563.00 16.00 C 582.95 15.67 604.69 16.72 624.00 16.00 C 643.31 15.28 663.07 17.98 680.07 21.93 C 697.08 25.88 710.74 30.76 725.70 37.31 C 740.65 43.85 752.71 50.54 765.75 59.25 C 778.78 67.97 788.11 76.84 800.00 87.00 Z"/>
</g>
<g fill="#F8F8F8" fill-opacity="1.00" stroke="None">
<path d="
M 170.00 494.00 
C 171.01 496.74 171.97 501.34 170.00 504.00
C 170.00 504.00 170.00 504.50 170.00 505.00
C 170.00 535.18 168.36 565.87 170.00 596.00
C 171.43 622.39 202.14 603.37 213.25 591.25 C 224.37 579.13 241.68 570.54 255.25 558.25 C 268.82 545.96 282.60 538.73 297.77 524.77 C 312.94 510.81 338.66 512.69 361.00 513.00 C 383.34 513.31 413.36 512.89 437.00 513.00 C 460.64 513.11 488.05 513.03 512.00 513.00 C 535.95 512.97 563.44 513.19 587.00 513.00 C 610.56 512.81 639.39 514.26 660.98 510.98 C 682.57 507.69 700.99 502.05 719.77 494.77 C 738.55 487.49 752.66 477.95 768.75 467.75 C 784.85 457.55 795.15 446.30 808.75 432.75 C 822.35 419.20 831.40 405.62 841.23 389.23 C 851.06 372.84 858.39 356.52 864.68 337.68 C 870.97 318.84 875.00 294.04 875.00 273.00
C 875.00 267.67 875.00 262.33 875.00 257.00
C 875.00 197.59 850.02 143.50 812.00 99.00
C 808.08 95.08 803.87 90.87 800.00 87.00
C 788.11 76.84 778.78 67.97 765.75 59.25 C 752.71 50.54 740.65 43.85 725.70 37.31 C 710.74 30.76 697.08 25.88 680.07 21.93 C 663.07 17.98 643.31 15.28 624.00 16.00 C 604.69 16.72 582.95 15.67 563.00 16.00 C 543.05 16.33 521.19 15.84 501.00 16.00 C 480.81 16.16 460.23 15.90 440.00 16.00 C 419.77 16.10 398.10 15.89 378.00 16.00 C 357.90 16.11 336.68 15.80 317.00 16.00 C 297.32 16.20 273.75 15.60 255.00 16.00 C 236.25 16.41 220.02 21.18 203.67 25.67 C 187.33 30.17 173.05 35.76 158.69 42.69 C 144.34 49.63 132.62 57.09 120.75 66.75 C 108.87 76.40 98.49 83.74 88.25 95.25 C 78.01 106.76 69.33 116.91 60.92 129.92 C 52.51 142.93 46.33 155.11 39.92 169.92 C 33.52 184.74 28.59 200.62 25.33 217.33 C 22.07 234.04 21.06 256.04 21.00 274.00 C 20.94 291.96 24.99 311.68 29.02 327.98 C 33.06 344.27 39.28 357.77 45.69 372.31 C 52.11 386.84 60.60 398.25 69.23 410.77 C 77.86 423.29 87.89 431.92 97.92 443.08 C 107.95 454.24 122.75 460.44 132.77 470.23 C 142.79 480.02 165.10 480.73 170.00 494.00
M 624.00 40.00 
C 634.03 40.00 644.89 40.22 654.22 41.78 C 663.55 43.33 673.36 44.38 682.01 46.99 C 690.65 49.61 698.55 52.42 706.68 55.32 C 714.81 58.22 722.04 61.58 729.25 65.75 C 736.45 69.93 743.42 73.34 750.08 77.92 C 756.74 82.50 762.56 87.25 768.75 92.25 C 774.94 97.24 780.61 101.95 786.25 107.75 C 791.88 113.55 796.48 119.17 801.75 125.25 C 807.03 131.32 811.27 137.47 815.75 144.25 C 820.24 151.02 823.88 157.79 827.77 165.23 C 831.66 172.67 834.52 180.04 837.92 188.08 C 841.33 196.11 843.14 205.04 845.00 214.00 C 846.85 222.96 849.27 232.06 850.33 241.67 C 851.39 251.28 850.77 264.01 851.00 274.00 C 851.23 283.99 849.57 294.76 848.01 304.01 C 846.45 313.26 843.73 321.69 841.22 330.22 C 838.71 338.75 835.47 346.39 832.23 354.23 C 828.99 362.07 825.67 369.29 821.23 376.23 C 816.79 383.17 813.16 389.83 808.23 396.23 C 803.30 402.63 798.74 408.30 793.25 414.25 C 787.75 420.19 782.19 425.03 776.25 430.25 C 770.32 435.48 765.28 440.19 758.77 444.77 C 752.26 449.35 746.04 453.93 738.77 457.77 C 731.50 461.61 724.77 465.59 716.98 468.98 C 709.18 472.36 701.78 475.52 693.32 478.32 C 684.86 481.13 676.27 483.18 666.99 484.99 C 657.71 486.81 648.32 489.11 638.00 489.00 C 627.68 488.89 615.69 489.05 605.00 489.00 C 594.31 488.95 582.86 489.02 572.00 489.00 C 561.14 488.98 549.93 489.01 539.00 489.00 C 528.07 488.99 516.96 489.01 506.00 489.00 C 495.04 488.99 483.96 489.01 473.00 489.00 C 462.04 488.99 450.94 489.02 440.00 489.00 C 429.06 488.98 417.88 489.04 407.00 489.00 C 396.12 488.96 384.74 489.09 374.00 489.00 C 363.26 488.91 351.43 489.19 341.00 489.00 C 330.57 488.81 318.37 489.02 308.93 489.93 C 299.49 490.83 295.08 497.36 288.25 502.25 C 281.43 507.14 276.04 511.80 269.75 516.75 C 263.46 521.70 257.23 526.39 251.25 531.25 C 245.27 536.11 238.00 540.82 232.25 545.25 C 226.51 549.69 220.04 557.81 213.75 559.75 C 207.47 561.70 201.71 576.48 195.00 574.00
C 189.65 572.02 194.11 558.91 193.00 553.00 C 191.89 547.09 193.64 536.01 193.00 529.00 C 192.36 521.99 193.59 512.45 193.00 505.00 C 192.41 497.55 193.93 488.53 193.00 481.00
C 186.68 462.03 157.57 461.59 143.92 448.08 C 130.26 434.57 111.20 427.50 99.75 410.25 C 88.30 393.00 76.37 379.82 67.69 360.31 C 59.02 340.79 50.52 321.02 47.07 298.93 C 43.62 276.84 44.40 244.49 48.98 222.98 C 53.55 201.46 59.82 180.53 69.77 161.77 C 79.73 143.01 89.39 129.30 103.75 113.75 C 118.11 98.21 130.74 87.83 148.25 76.25 C 165.75 64.66 183.27 57.22 204.07 50.07 C 224.88 42.93 253.56 40.00 277.00 40.00
C 332.92 34.59 392.53 38.99 450.00 39.00 C 507.47 39.01 568.04 34.58 624.00 40.00 Z"/>
</g>
<g fill="#878787" fill-opacity="0.95" stroke="None">
<path d="
M 277.00 40.00 
C 392.67 40.00 508.33 40.00 624.00 40.00
C 568.04 34.58 507.47 39.01 450.00 39.00 C 392.53 38.99 332.92 34.59 277.00 40.00 Z"/>
</g>
<g fill="#000000" fill-opacity="1.00" stroke="None">
<path d="
M 193.00 481.00 
C 197.85 495.54 194.00 515.02 194.00 531.00
C 194.30 534.14 194.30 537.92 194.00 541.00
C 194.00 552.01 193.40 563.37 195.00 574.00
C 201.71 576.48 207.47 561.70 213.75 559.75 C 220.04 557.81 226.51 549.69 232.25 545.25 C 238.00 540.82 245.27 536.11 251.25 531.25 C 257.23 526.39 263.46 521.70 269.75 516.75 C 276.04 511.80 281.43 507.14 288.25 502.25 C 295.08 497.36 299.49 490.83 308.93 489.93 C 318.37 489.02 330.57 488.81 341.00 489.00 C 351.43 489.19 363.26 488.91 374.00 489.00 C 384.74 489.09 396.12 488.96 407.00 489.00 C 417.88 489.04 429.06 488.98 440.00 489.00 C 450.94 489.02 462.04 488.99 473.00 489.00 C 483.96 489.01 495.04 488.99 506.00 489.00 C 516.96 489.01 528.07 488.99 539.00 489.00 C 549.93 489.01 561.14 488.98 572.00 489.00 C 582.86 489.02 594.31 488.95 605.00 489.00 C 615.69 489.05 627.68 488.89 638.00 489.00 C 648.32 489.11 657.71 486.81 666.99 484.99 C 676.27 483.18 684.86 481.13 693.32 478.32 C 701.78 475.52 709.18 472.36 716.98 468.98 C 724.77 465.59 731.50 461.61 738.77 457.77 C 746.04 453.93 752.26 449.35 758.77 444.77 C 765.28 440.19 770.32 435.48 776.25 430.25 C 782.19 425.03 787.75 420.19 793.25 414.25 C 798.74 408.30 803.30 402.63 808.23 396.23 C 813.16 389.83 816.79 383.17 821.23 376.23 C 825.67 369.29 828.99 362.07 832.23 354.23 C 835.47 346.39 838.71 338.75 841.22 330.22 C 843.73 321.69 846.45 313.26 848.01 304.01 C 849.57 294.76 851.23 283.99 851.00 274.00 C 850.77 264.01 851.39 251.28 850.33 241.67 C 849.27 232.06 846.85 222.96 845.00 214.00 C 843.14 205.04 841.33 196.11 837.92 188.08 C 834.52 180.04 831.66 172.67 827.77 165.23 C 823.88 157.79 820.24 151.02 815.75 144.25 C 811.27 137.47 807.03 131.32 801.75 125.25 C 796.48 119.17 791.88 113.55 786.25 107.75 C 780.61 101.95 774.94 97.24 768.75 92.25 C 762.56 87.25 756.74 82.50 750.08 77.92 C 743.42 73.34 736.45 69.93 729.25 65.75 C 722.04 61.58 714.81 58.22 706.68 55.32 C 698.55 52.42 690.65 49.61 682.01 46.99 C 673.36 44.38 663.55 43.33 654.22 41.78 C 644.89 40.22 634.03 40.00 624.00 40.00
C 508.33 40.00 392.67 40.00 277.00 40.00
C 253.56 40.00 224.88 42.93 204.07 50.07 C 183.27 57.22 165.75 64.66 148.25 76.25 C 130.74 87.83 118.11 98.21 103.75 113.75 C 89.39 129.30 79.73 143.01 69.77 161.77 C 59.82 180.53 53.55 201.46 48.98 222.98 C 44.40 244.49 43.62 276.84 47.07 298.93 C 50.52 321.02 59.02 340.79 67.69 360.31 C 76.37 379.82 88.30 393.00 99.75 410.25 C 111.20 427.50 130.26 434.57 143.92 448.08 C 157.57 461.59 186.68 462.03 193.00 481.00
M 290.00 232.00 
C 292.46 232.00 295.60 231.47 298.00 232.00
C 298.95 232.21 300.04 231.83 301.00 232.00
C 289.76 242.79 285.25 250.06 272.75 260.75 C 260.25 271.45 273.83 284.64 281.30 295.70 C 288.78 306.75 298.17 318.78 304.00 331.00
C 291.35 329.90 270.34 335.97 261.70 325.30 C 253.05 314.63 248.50 305.39 242.00 294.00
C 225.27 297.57 225.51 316.94 225.00 330.00
C 221.52 334.67 213.84 330.86 209.00 331.00 C 204.15 331.15 197.00 333.88 193.00 330.00
C 187.73 324.88 192.46 311.85 191.02 303.98 C 189.59 296.11 193.24 284.29 192.00 275.00 C 190.76 265.71 192.59 253.76 192.00 244.00 C 191.41 234.24 192.30 223.99 192.00 214.00 C 191.70 204.01 192.23 193.07 192.00 183.00
C 203.33 183.00 214.67 183.00 226.00 183.00
C 226.00 211.33 226.00 239.67 226.00 268.00
C 236.19 259.08 243.16 254.10 251.30 242.30 C 259.45 230.50 276.19 228.64 290.00 232.00
M 418.00 207.00 
C 423.85 242.32 432.53 277.17 436.00 313.00
C 436.37 313.84 437.92 314.77 438.00 316.00
C 439.25 315.70 439.71 314.17 441.00 314.00
C 442.14 306.86 443.33 297.53 445.98 290.98 C 448.62 284.43 446.93 274.64 454.23 271.23 C 461.53 267.82 474.88 274.24 482.00 271.00 C 489.12 267.76 503.27 276.73 494.00 282.00
C 493.73 282.15 493.23 282.74 493.00 283.00
C 487.90 288.76 477.36 283.55 470.00 284.00 C 462.64 284.45 460.02 291.79 458.00 298.00
C 454.81 307.83 453.03 314.92 450.22 325.22 C 447.41 335.53 447.84 343.22 444.22 354.22 C 440.60 365.22 429.15 357.08 429.07 346.93 C 429.00 336.77 425.74 326.79 424.07 316.93 C 422.41 307.06 421.08 296.49 418.00 287.00
C 413.98 274.62 410.37 260.38 412.00 247.00
C 412.15 245.78 412.12 244.22 412.00 243.00
C 410.89 240.57 407.55 243.96 407.00 245.00
C 405.79 252.04 404.04 258.85 403.00 266.00
C 402.03 272.65 402.37 282.18 394.32 284.32 C 386.27 286.46 377.44 282.57 369.00 284.00 C 360.56 285.43 350.20 281.85 342.00 284.00 C 333.80 286.15 327.36 273.97 336.00 271.00
C 336.38 270.79 337.50 271.00 338.00 271.00
C 347.21 266.59 368.22 268.85 378.00 271.00
C 379.00 271.00 380.00 271.00 381.00 271.00
C 381.63 271.00 386.82 270.63 387.00 271.00
C 393.89 266.77 390.40 257.02 393.33 250.33 C 396.25 243.64 397.63 235.40 398.98 227.98 C 400.33 220.55 404.50 213.01 404.00 205.00
C 403.97 204.50 403.87 203.46 404.00 203.00
C 405.02 199.31 406.50 195.00 411.00 195.00
C 411.50 195.00 412.55 194.85 413.00 195.00
C 419.13 197.11 418.15 203.00 418.00 207.00
M 735.00 239.00 
C 733.43 244.59 729.67 249.40 728.00 255.00
C 717.09 249.99 709.23 246.71 696.78 247.78 C 684.33 248.85 683.85 264.45 695.23 267.77 C 706.61 271.09 714.77 271.96 724.70 278.30 C 734.62 284.64 738.24 294.32 736.22 305.22 C 734.20 316.12 728.60 323.20 718.77 327.77 C 708.94 332.35 692.70 331.07 682.98 330.02 C 673.25 328.98 657.50 325.61 662.32 313.32 C 667.15 301.03 680.15 312.45 689.00 314.00 C 697.85 315.54 718.85 312.94 715.00 300.00 C 711.15 287.06 697.03 292.15 688.32 286.68 C 679.62 281.21 669.06 280.28 665.68 269.32 C 662.29 258.36 663.97 247.02 672.75 239.75 C 681.54 232.48 691.75 229.54 703.00 230.00 C 714.25 230.46 725.45 233.26 735.00 239.00
M 531.00 233.00 
C 545.83 234.18 542.74 252.27 547.33 263.67 C 551.92 275.07 552.75 288.67 558.00 300.00
C 566.69 279.56 571.25 257.01 579.00 236.00
C 581.79 230.02 588.31 231.47 593.00 234.00
C 601.01 238.32 600.59 251.47 604.78 260.22 C 608.96 268.98 611.19 280.62 614.00 290.00
C 614.93 291.63 618.73 292.30 618.00 295.00
C 622.05 292.89 618.41 285.95 623.00 284.00
C 624.94 274.78 627.71 264.60 630.78 255.78 C 633.85 246.96 631.83 232.95 644.00 233.00
C 647.49 232.43 650.50 232.13 654.00 233.00
C 655.76 233.15 655.76 233.16 657.00 234.00
C 660.84 236.61 653.04 249.08 652.02 255.02 C 651.01 260.97 646.02 270.37 644.68 277.68 C 643.34 284.99 639.10 292.05 637.22 300.22 C 635.35 308.40 632.42 313.76 630.07 323.07 C 627.73 332.39 617.17 327.23 610.00 328.00
C 602.71 307.42 595.20 286.91 589.00 266.00
C 582.99 272.86 581.05 282.42 578.02 292.02 C 575.00 301.63 570.80 310.23 568.68 320.68 C 566.56 331.13 546.88 331.55 545.01 320.99 C 543.14 310.43 538.28 303.05 536.02 292.98 C 533.77 282.90 529.27 274.23 526.68 264.32 C 524.09 254.41 520.28 245.03 518.00 235.00
C 519.20 229.90 526.89 232.67 531.00 233.00 Z"/>
</g>
<g fill="#737373" fill-opacity="0.89" stroke="None">
<path d="
M 812.00 99.00 
C 808.38 94.76 804.29 90.66 800.00 87.00
C 803.87 90.87 808.08 95.08 812.00 99.00 Z"/>
</g>
<g fill="#FAFAFA" fill-opacity="1.00" stroke="None">
<path d="
M 193.00 330.00 
C 196.17 331.57 205.46 330.13 209.00 330.00 C 212.54 329.87 222.28 331.91 225.00 330.00
C 225.51 316.94 225.27 297.57 242.00 294.00
C 248.50 305.39 253.05 314.63 261.70 325.30 C 270.34 335.97 291.35 329.90 304.00 331.00
C 298.17 318.78 288.78 306.75 281.30 295.70 C 273.83 284.64 260.25 271.45 272.75 260.75 C 285.25 250.06 289.76 242.79 301.00 232.00
C 300.04 231.83 298.95 232.21 298.00 232.00
C 296.53 231.85 291.71 232.17 290.00 232.00
C 276.19 228.64 259.45 230.50 251.30 242.30 C 243.16 254.10 236.19 259.08 226.00 268.00
C 226.00 239.67 226.00 211.33 226.00 183.00
C 214.67 183.00 203.33 183.00 192.00 183.00
C 192.23 193.07 191.70 204.01 192.00 214.00 C 192.30 223.99 191.41 234.24 192.00 244.00 C 192.59 253.76 190.76 265.71 192.00 275.00 C 193.24 284.29 189.59 296.11 191.02 303.98 C 192.46 311.85 187.73 324.88 193.00 330.00 Z"/>
</g>
<g fill="#370904" fill-opacity="0.95" stroke="None">
<path d="
M 404.00 203.00 
C 405.30 200.87 408.90 196.62 411.00 195.00
C 406.50 195.00 405.02 199.31 404.00 203.00 Z"/>
</g>
<g fill="#A2442A" fill-opacity="0.93" stroke="None">
<path d="
M 404.00 203.00 
C 403.87 203.46 403.97 204.50 404.00 205.00
C 407.64 204.95 410.12 190.93 416.00 199.00
C 415.60 198.11 413.72 195.43 413.00 195.00
C 412.55 194.85 411.50 195.00 411.00 195.00
C 408.90 196.62 405.30 200.87 404.00 203.00 Z"/>
</g>
<g fill="#340803" fill-opacity="0.94" stroke="None">
<path d="
M 416.00 199.00 
C 416.97 201.16 417.61 204.66 418.00 207.00
C 418.15 203.00 419.13 197.11 413.00 195.00
C 413.72 195.43 415.60 198.11 416.00 199.00 Z"/>
</g>
<g fill="#E85522" fill-opacity="0.99" stroke="None">
<path d="
M 404.00 205.00 
C 404.50 213.01 400.33 220.55 398.98 227.98 C 397.63 235.40 396.25 243.64 393.33 250.33 C 390.40 257.02 393.89 266.77 387.00 271.00
C 386.24 271.47 385.98 271.60 385.00 272.00
C 380.51 273.83 373.78 273.15 368.98 272.02 C 364.17 270.90 356.50 274.65 352.00 273.00 C 347.50 271.35 337.65 275.23 335.00 273.00
C 329.40 279.12 338.95 284.97 345.67 282.67 C 352.39 280.37 361.67 284.04 369.00 283.00 C 376.33 281.96 386.47 284.25 393.22 282.22 C 399.97 280.19 401.55 271.67 403.00 266.00
C 404.04 258.85 405.79 252.04 407.00 245.00
C 407.58 241.64 408.12 238.31 409.00 235.00
C 412.13 236.36 410.59 240.49 412.00 243.00
C 412.12 244.22 412.15 245.78 412.00 247.00
C 413.76 259.93 415.80 273.74 418.00 287.00
C 421.08 296.49 422.41 307.06 424.07 316.93 C 425.74 326.79 429.00 336.77 429.07 346.93 C 429.15 357.08 440.60 365.22 444.22 354.22 C 447.84 343.22 447.41 335.53 450.22 325.22 C 453.03 314.92 454.81 307.83 458.00 298.00
C 458.65 293.66 457.78 285.69 462.00 283.00
C 465.48 280.78 472.40 281.67 477.00 282.00 C 481.60 282.33 489.51 280.56 494.00 282.00
C 503.27 276.73 489.12 267.76 482.00 271.00 C 474.88 274.24 461.53 267.82 454.23 271.23 C 446.93 274.64 448.62 284.43 445.98 290.98 C 443.33 297.53 442.14 306.86 441.00 314.00
C 440.52 317.02 440.33 320.91 438.00 323.00
C 436.40 319.94 435.68 316.59 436.00 313.00
C 432.53 277.17 423.85 242.32 418.00 207.00
C 417.61 204.66 416.97 201.16 416.00 199.00
C 410.12 190.93 407.64 204.95 404.00 205.00 Z"/>
</g>
<g fill="#ED531F" fill-opacity="0.99" stroke="None">
<path d="
M 735.00 239.00 
C 725.45 233.26 714.25 230.46 703.00 230.00 C 691.75 229.54 681.54 232.48 672.75 239.75 C 663.97 247.02 662.29 258.36 665.68 269.32 C 669.06 280.28 679.62 281.21 688.32 286.68 C 697.03 292.15 711.15 287.06 715.00 300.00 C 718.85 312.94 697.85 315.54 689.00 314.00 C 680.15 312.45 667.15 301.03 662.32 313.32 C 657.50 325.61 673.25 328.98 682.98 330.02 C 692.70 331.07 708.94 332.35 718.77 327.77 C 728.60 323.20 734.20 316.12 736.22 305.22 C 738.24 294.32 734.62 284.64 724.70 278.30 C 714.77 271.96 706.61 271.09 695.23 267.77 C 683.85 264.45 684.33 248.85 696.78 247.78 C 709.23 246.71 717.09 249.99 728.00 255.00
C 729.67 249.40 733.43 244.59 735.00 239.00 Z"/>
</g>
<g fill="#808080" fill-opacity="0.86" stroke="None">
<path d="
M 298.00 232.00 
C 295.60 231.47 292.46 232.00 290.00 232.00
C 291.71 232.17 296.53 231.85 298.00 232.00 Z"/>
</g>
<g fill="#611D0E" fill-opacity="0.97" stroke="None">
<path d="
M 518.00 235.00 
C 522.58 236.35 527.29 233.39 531.00 233.00
C 526.89 232.67 519.20 229.90 518.00 235.00 Z"/>
</g>
<g fill="#7A301A" fill-opacity="0.98" stroke="None">
<path d="
M 579.00 236.00 
C 581.32 233.18 589.12 233.14 593.00 234.00
C 588.31 231.47 581.79 230.02 579.00 236.00 Z"/>
</g>
<g fill="#380C07" fill-opacity="0.84" stroke="None">
<path d="
M 644.00 233.00 
C 645.00 233.00 646.00 233.00 647.00 233.00
C 649.30 233.00 651.71 232.80 654.00 233.00
C 650.50 232.13 647.49 232.43 644.00 233.00 Z"/>
</g>
<g fill="#EF561F" fill-opacity="0.99" stroke="None">
<path d="
M 518.00 235.00 
C 520.28 245.03 524.09 254.41 526.68 264.32 C 529.27 274.23 533.77 282.90 536.02 292.98 C 538.28 303.05 543.14 310.43 545.01 320.99 C 546.88 331.55 566.56 331.13 568.68 320.68 C 570.80 310.23 575.00 301.63 578.02 292.02 C 581.05 282.42 582.99 272.86 589.00 266.00
C 595.20 286.91 602.71 307.42 610.00 328.00
C 617.17 327.23 627.73 332.39 630.07 323.07 C 632.42 313.76 635.35 308.40 637.22 300.22 C 639.10 292.05 643.34 284.99 644.68 277.68 C 646.02 270.37 651.01 260.97 652.02 255.02 C 653.04 249.08 660.84 236.61 657.00 234.00
C 654.77 233.02 649.11 233.46 647.00 233.00
C 646.00 233.00 645.00 233.00 644.00 233.00
C 631.83 232.95 633.85 246.96 630.78 255.78 C 627.71 264.60 624.94 274.78 623.00 284.00
C 621.84 289.49 621.55 297.64 618.00 301.00
C 616.82 297.31 615.37 293.68 614.00 290.00
C 611.19 280.62 608.96 268.98 604.78 260.22 C 600.59 251.47 601.01 238.32 593.00 234.00
C 589.12 233.14 581.32 233.18 579.00 236.00
C 571.25 257.01 566.69 279.56 558.00 300.00
C 552.75 288.67 551.92 275.07 547.33 263.67 C 542.74 252.27 545.83 234.18 531.00 233.00
C 527.29 233.39 522.58 236.35 518.00 235.00 Z"/>
</g>
<g fill="#62170C" fill-opacity="0.99" stroke="None">
<path d="
M 657.00 234.00 
C 655.76 233.16 655.76 233.15 654.00 233.00
C 651.71 232.80 649.30 233.00 647.00 233.00
C 649.11 233.46 654.77 233.02 657.00 234.00 Z"/>
</g>
<g fill="#61190B" fill-opacity="0.93" stroke="None">
<path d="
M 407.00 245.00 
C 407.55 243.96 410.89 240.57 412.00 243.00
C 410.59 240.49 412.13 236.36 409.00 235.00
C 408.12 238.31 407.58 241.64 407.00 245.00 Z"/>
</g>
<g fill="#410D04" fill-opacity="0.91" stroke="None">
<path d="
M 418.00 287.00 
C 415.80 273.74 413.76 259.93 412.00 247.00
C 410.37 260.38 413.98 274.62 418.00 287.00 Z"/>
</g>
<g fill="#5C5C5D" fill-opacity="0.92" stroke="None">
<path d="
M 875.00 273.00 
C 875.48 268.03 875.49 262.04 875.00 257.00
C 875.00 262.33 875.00 267.67 875.00 273.00 Z"/>
</g>
<g fill="#380702" fill-opacity="0.91" stroke="None">
<path d="
M 335.00 273.00 
C 335.26 272.72 335.79 271.12 336.00 271.00
C 327.36 273.97 333.80 286.15 342.00 284.00 C 350.20 281.85 360.56 285.43 369.00 284.00 C 377.44 282.57 386.27 286.46 394.32 284.32 C 402.37 282.18 402.03 272.65 403.00 266.00
C 401.55 271.67 399.97 280.19 393.22 282.22 C 386.47 284.25 376.33 281.96 369.00 283.00 C 361.67 284.04 352.39 280.37 345.67 282.67 C 338.95 284.97 329.40 279.12 335.00 273.00 Z"/>
</g>
<g fill="#3A0B02" fill-opacity="0.94" stroke="None">
<path d="
M 338.00 271.00 
C 351.33 271.00 364.67 271.00 378.00 271.00
C 368.22 268.85 347.21 266.59 338.00 271.00 Z"/>
</g>
<g fill="#B95031" fill-opacity="0.93" stroke="None">
<path d="
M 335.00 273.00 
C 337.65 275.23 347.50 271.35 352.00 273.00 C 356.50 274.65 364.17 270.90 368.98 272.02 C 373.78 273.15 380.51 273.83 385.00 272.00
C 383.15 272.24 382.11 271.20 381.00 271.00
C 380.00 271.00 379.00 271.00 378.00 271.00
C 364.67 271.00 351.33 271.00 338.00 271.00
C 337.50 271.00 336.38 270.79 336.00 271.00
C 335.79 271.12 335.26 272.72 335.00 273.00 Z"/>
</g>
<g fill="#7D2E1B" fill-opacity="0.89" stroke="None">
<path d="
M 385.00 272.00 
C 385.98 271.60 386.24 271.47 387.00 271.00
C 386.82 270.63 381.63 271.00 381.00 271.00
C 382.11 271.20 383.15 272.24 385.00 272.00 Z"/>
</g>
<g fill="#AB4627" fill-opacity="0.93" stroke="None">
<path d="
M 462.00 283.00 
C 470.15 279.48 484.11 284.28 493.00 283.00
C 493.23 282.74 493.73 282.15 494.00 282.00
C 489.51 280.56 481.60 282.33 477.00 282.00 C 472.40 281.67 465.48 280.78 462.00 283.00 Z"/>
</g>
<g fill="#370401" fill-opacity="0.94" stroke="None">
<path d="
M 458.00 298.00 
C 460.02 291.79 462.64 284.45 470.00 284.00 C 477.36 283.55 487.90 288.76 493.00 283.00
C 484.11 284.28 470.15 279.48 462.00 283.00
C 457.78 285.69 458.65 293.66 458.00 298.00 Z"/>
</g>
<g fill="#551306" fill-opacity="0.93" stroke="None">
<path d="
M 614.00 290.00 
C 615.37 293.68 616.82 297.31 618.00 301.00
C 621.55 297.64 621.84 289.49 623.00 284.00
C 618.41 285.95 622.05 292.89 618.00 295.00
C 618.73 292.30 614.93 291.63 614.00 290.00 Z"/>
</g>
<g fill="#691C0D" fill-opacity="0.93" stroke="None">
<path d="
M 441.00 314.00 
C 439.71 314.17 439.25 315.70 438.00 316.00
C 437.92 314.77 436.37 313.84 436.00 313.00
C 435.68 316.59 436.40 319.94 438.00 323.00
C 440.33 320.91 440.52 317.02 441.00 314.00 Z"/>
</g>
<g fill="#626262" fill-opacity="0.95" stroke="None">
<path d="
M 225.00 330.00 
C 222.28 331.91 212.54 329.87 209.00 330.00 C 205.46 330.13 196.17 331.57 193.00 330.00
C 197.00 333.88 204.15 331.15 209.00 331.00 C 213.84 330.86 221.52 334.67 225.00 330.00 Z"/>
</g>
<g fill="#828282" fill-opacity="0.94" stroke="None">
<path d="
M 195.00 574.00 
C 193.40 563.37 194.00 552.01 194.00 541.00
C 194.00 537.67 194.00 534.33 194.00 531.00
C 194.00 515.02 197.85 495.54 193.00 481.00
C 193.93 488.53 192.41 497.55 193.00 505.00 C 193.59 512.45 192.36 521.99 193.00 529.00 C 193.64 536.01 191.89 547.09 193.00 553.00 C 194.11 558.91 189.65 572.02 195.00 574.00 Z"/>
</g>
<g fill="#929292" fill-opacity="0.89" stroke="None">
<path d="
M 170.00 504.00 
C 171.97 501.34 171.01 496.74 170.00 494.00
C 170.66 497.00 170.00 500.92 170.00 504.00 Z"/>
</g>
<g fill="#7B7B7B" fill-opacity="0.94" stroke="None">
<path d="
M 170.00 596.00 
C 168.36 565.87 170.00 535.18 170.00 505.00
C 164.95 511.83 170.57 526.06 169.00 535.00 C 167.43 543.94 169.60 556.55 169.00 566.00 C 168.40 575.45 168.57 587.21 170.00 596.00 Z"/>
</g>
<g fill="#454545" fill-opacity="0.87" stroke="None">
<path d="
M 194.00 541.00 
C 194.30 537.92 194.30 534.14 194.00 531.00
C 194.00 534.33 194.00 537.67 194.00 541.00 Z"/>
</g>
</svg>